<mxfile host="app.diagrams.net" modified="2023-11-03T22:52:13.610Z" agent="Mozilla/5.0 (Windows NT 10.0; Win64; x64) AppleWebKit/537.36 (KHTML, like Gecko) Chrome/119.0.0.0 Safari/537.36" etag="PbIutOQO4jknBfhZhw5_" version="22.0.8" type="device">
  <diagram id="C5RBs43oDa-KdzZeNtuy" name="Page-1">
    <mxGraphModel dx="1969" dy="941" grid="1" gridSize="10" guides="1" tooltips="1" connect="1" arrows="1" fold="1" page="1" pageScale="1" pageWidth="827" pageHeight="1169" math="0" shadow="0">
      <root>
        <mxCell id="WIyWlLk6GJQsqaUBKTNV-0" />
        <mxCell id="WIyWlLk6GJQsqaUBKTNV-1" parent="WIyWlLk6GJQsqaUBKTNV-0" />
        <mxCell id="DVkl-K_QWlgrV8dKoYW--53" style="edgeStyle=orthogonalEdgeStyle;rounded=0;orthogonalLoop=1;jettySize=auto;html=1;exitX=0.5;exitY=1;exitDx=0;exitDy=0;entryX=0.5;entryY=0;entryDx=0;entryDy=0;" parent="WIyWlLk6GJQsqaUBKTNV-1" source="DVkl-K_QWlgrV8dKoYW--0" target="DVkl-K_QWlgrV8dKoYW--43" edge="1">
          <mxGeometry relative="1" as="geometry" />
        </mxCell>
        <mxCell id="DVkl-K_QWlgrV8dKoYW--0" value="" style="verticalLabelPosition=bottom;verticalAlign=top;html=1;shape=hexagon;perimeter=hexagonPerimeter2;arcSize=6;size=0.27;" parent="WIyWlLk6GJQsqaUBKTNV-1" vertex="1">
          <mxGeometry x="348.88" y="20" width="100" height="60" as="geometry" />
        </mxCell>
        <mxCell id="DVkl-K_QWlgrV8dKoYW--3" value="" style="endArrow=none;html=1;rounded=0;" parent="WIyWlLk6GJQsqaUBKTNV-1" edge="1">
          <mxGeometry width="50" height="50" relative="1" as="geometry">
            <mxPoint x="348.88" y="49.83" as="sourcePoint" />
            <mxPoint x="448.88" y="49.83" as="targetPoint" />
          </mxGeometry>
        </mxCell>
        <mxCell id="DVkl-K_QWlgrV8dKoYW--4" value="void main" style="text;strokeColor=none;align=center;fillColor=none;html=1;verticalAlign=middle;whiteSpace=wrap;rounded=0;" parent="WIyWlLk6GJQsqaUBKTNV-1" vertex="1">
          <mxGeometry x="368.88" y="20" width="60" height="30" as="geometry" />
        </mxCell>
        <mxCell id="DVkl-K_QWlgrV8dKoYW--48" style="edgeStyle=orthogonalEdgeStyle;rounded=0;orthogonalLoop=1;jettySize=auto;html=1;exitX=0.5;exitY=1;exitDx=0;exitDy=0;entryX=0.5;entryY=0;entryDx=0;entryDy=0;" parent="WIyWlLk6GJQsqaUBKTNV-1" source="DVkl-K_QWlgrV8dKoYW--13" target="DVkl-K_QWlgrV8dKoYW--44" edge="1">
          <mxGeometry relative="1" as="geometry" />
        </mxCell>
        <mxCell id="DVkl-K_QWlgrV8dKoYW--13" value="int i=50;i&amp;gt;=1;i--" style="swimlane;horizontal=0;whiteSpace=wrap;html=1;" parent="WIyWlLk6GJQsqaUBKTNV-1" vertex="1">
          <mxGeometry x="870" y="180" width="270" height="220" as="geometry" />
        </mxCell>
        <mxCell id="DVkl-K_QWlgrV8dKoYW--15" value="ciudad_origen,ciudad_destino, costo,distancia" style="shape=trapezoid;perimeter=trapezoidPerimeter;whiteSpace=wrap;html=1;fixedSize=1;direction=west;" parent="DVkl-K_QWlgrV8dKoYW--13" vertex="1">
          <mxGeometry x="50" y="10" width="200" height="50" as="geometry" />
        </mxCell>
        <mxCell id="DVkl-K_QWlgrV8dKoYW--16" value="v_origen[i - 1] = origen" style="whiteSpace=wrap;html=1;" parent="DVkl-K_QWlgrV8dKoYW--13" vertex="1">
          <mxGeometry x="90" y="70" width="120" height="30" as="geometry" />
        </mxCell>
        <mxCell id="DVkl-K_QWlgrV8dKoYW--17" value="v_destino[i - 1] = destino" style="whiteSpace=wrap;html=1;" parent="DVkl-K_QWlgrV8dKoYW--13" vertex="1">
          <mxGeometry x="90" y="110" width="120" height="30" as="geometry" />
        </mxCell>
        <mxCell id="DVkl-K_QWlgrV8dKoYW--18" value="v_costo[i - 1] = costo" style="whiteSpace=wrap;html=1;" parent="DVkl-K_QWlgrV8dKoYW--13" vertex="1">
          <mxGeometry x="90" y="150" width="120" height="20" as="geometry" />
        </mxCell>
        <mxCell id="DVkl-K_QWlgrV8dKoYW--19" value="v_distancia[i - 1] = distancia" style="whiteSpace=wrap;html=1;" parent="DVkl-K_QWlgrV8dKoYW--13" vertex="1">
          <mxGeometry x="90" y="180" width="120" height="30" as="geometry" />
        </mxCell>
        <mxCell id="DVkl-K_QWlgrV8dKoYW--52" style="edgeStyle=orthogonalEdgeStyle;rounded=0;orthogonalLoop=1;jettySize=auto;html=1;exitX=0.5;exitY=1;exitDx=0;exitDy=0;" parent="WIyWlLk6GJQsqaUBKTNV-1" edge="1">
          <mxGeometry relative="1" as="geometry">
            <mxPoint x="1014" y="180" as="targetPoint" />
            <mxPoint x="1014.1199999999999" y="140" as="sourcePoint" />
          </mxGeometry>
        </mxCell>
        <mxCell id="DVkl-K_QWlgrV8dKoYW--49" style="edgeStyle=orthogonalEdgeStyle;rounded=0;orthogonalLoop=1;jettySize=auto;html=1;exitX=0.5;exitY=1;exitDx=0;exitDy=0;entryX=0.5;entryY=1;entryDx=0;entryDy=0;" parent="WIyWlLk6GJQsqaUBKTNV-1" target="DVkl-K_QWlgrV8dKoYW--28" edge="1">
          <mxGeometry relative="1" as="geometry">
            <mxPoint x="1014.1199999999999" y="600" as="sourcePoint" />
          </mxGeometry>
        </mxCell>
        <mxCell id="DVkl-K_QWlgrV8dKoYW--51" style="edgeStyle=orthogonalEdgeStyle;rounded=0;orthogonalLoop=1;jettySize=auto;html=1;exitX=0.5;exitY=1;exitDx=0;exitDy=0;entryX=0.5;entryY=0;entryDx=0;entryDy=0;" parent="WIyWlLk6GJQsqaUBKTNV-1" source="DVkl-K_QWlgrV8dKoYW--27" target="DVkl-K_QWlgrV8dKoYW--45" edge="1">
          <mxGeometry relative="1" as="geometry" />
        </mxCell>
        <mxCell id="DVkl-K_QWlgrV8dKoYW--27" value="dia != 0" style="swimlane;whiteSpace=wrap;html=1;" parent="WIyWlLk6GJQsqaUBKTNV-1" vertex="1">
          <mxGeometry x="797.37" y="700" width="415.25" height="310" as="geometry" />
        </mxCell>
        <mxCell id="DVkl-K_QWlgrV8dKoYW--32" value="nro_cliente, cod_vuelo, ,dia" style="shape=trapezoid;perimeter=trapezoidPerimeter;whiteSpace=wrap;html=1;fixedSize=1;direction=west;" parent="DVkl-K_QWlgrV8dKoYW--27" vertex="1">
          <mxGeometry x="145.25" y="230" width="120" height="60" as="geometry" />
        </mxCell>
        <mxCell id="DVkl-K_QWlgrV8dKoYW--33" value="mes, cant_pasajes,nro_vendedor&amp;nbsp;" style="shape=trapezoid;perimeter=trapezoidPerimeter;whiteSpace=wrap;html=1;fixedSize=1;direction=west;" parent="DVkl-K_QWlgrV8dKoYW--27" vertex="1">
          <mxGeometry x="114.06" y="50" width="182.37" height="60" as="geometry" />
        </mxCell>
        <mxCell id="DVkl-K_QWlgrV8dKoYW--50" style="edgeStyle=orthogonalEdgeStyle;rounded=0;orthogonalLoop=1;jettySize=auto;html=1;exitX=0.5;exitY=0;exitDx=0;exitDy=0;entryX=0.5;entryY=0;entryDx=0;entryDy=0;" parent="WIyWlLk6GJQsqaUBKTNV-1" source="DVkl-K_QWlgrV8dKoYW--28" target="DVkl-K_QWlgrV8dKoYW--27" edge="1">
          <mxGeometry relative="1" as="geometry" />
        </mxCell>
        <mxCell id="DVkl-K_QWlgrV8dKoYW--28" value="nro_cliente, cod_vuelo,dia" style="shape=trapezoid;perimeter=trapezoidPerimeter;whiteSpace=wrap;html=1;fixedSize=1;direction=west;" parent="WIyWlLk6GJQsqaUBKTNV-1" vertex="1">
          <mxGeometry x="945" y="625" width="120" height="60" as="geometry" />
        </mxCell>
        <mxCell id="DVkl-K_QWlgrV8dKoYW--43" value="int v_origen[50],int v_destino[50], float v_costo[50], v_distancia[50]" style="whiteSpace=wrap;html=1;" parent="WIyWlLk6GJQsqaUBKTNV-1" vertex="1">
          <mxGeometry x="293.88" y="100" width="210" height="60" as="geometry" />
        </mxCell>
        <mxCell id="DVkl-K_QWlgrV8dKoYW--44" value="F" style="ellipse;whiteSpace=wrap;html=1;" parent="WIyWlLk6GJQsqaUBKTNV-1" vertex="1">
          <mxGeometry x="980" y="420" width="50" height="50" as="geometry" />
        </mxCell>
        <mxCell id="DVkl-K_QWlgrV8dKoYW--45" value="F" style="ellipse;whiteSpace=wrap;html=1;" parent="WIyWlLk6GJQsqaUBKTNV-1" vertex="1">
          <mxGeometry x="979.99" y="1030" width="50" height="50" as="geometry" />
        </mxCell>
        <mxCell id="DVkl-K_QWlgrV8dKoYW--46" value="F" style="ellipse;whiteSpace=wrap;html=1;" parent="WIyWlLk6GJQsqaUBKTNV-1" vertex="1">
          <mxGeometry x="373.88" y="440" width="50" height="50" as="geometry" />
        </mxCell>
        <mxCell id="DVkl-K_QWlgrV8dKoYW--55" style="edgeStyle=orthogonalEdgeStyle;rounded=0;orthogonalLoop=1;jettySize=auto;html=1;exitX=0.5;exitY=1;exitDx=0;exitDy=0;entryX=0.462;entryY=0;entryDx=0;entryDy=0;entryPerimeter=0;" parent="WIyWlLk6GJQsqaUBKTNV-1" source="DVkl-K_QWlgrV8dKoYW--43" edge="1">
          <mxGeometry relative="1" as="geometry">
            <mxPoint x="398.82220000000007" y="200" as="targetPoint" />
          </mxGeometry>
        </mxCell>
        <mxCell id="DVkl-K_QWlgrV8dKoYW--57" style="edgeStyle=orthogonalEdgeStyle;rounded=0;orthogonalLoop=1;jettySize=auto;html=1;exitX=0.474;exitY=1.004;exitDx=0;exitDy=0;exitPerimeter=0;" parent="WIyWlLk6GJQsqaUBKTNV-1" target="DVkl-K_QWlgrV8dKoYW--46" edge="1">
          <mxGeometry relative="1" as="geometry">
            <Array as="points">
              <mxPoint x="399" y="420" />
              <mxPoint x="399" y="420" />
            </Array>
            <mxPoint x="399.1419999999998" y="410.3599999999999" as="sourcePoint" />
          </mxGeometry>
        </mxCell>
        <mxCell id="dhuMwqZpVVbvkbiRmmKU-24" value="" style="group" vertex="1" connectable="0" parent="WIyWlLk6GJQsqaUBKTNV-1">
          <mxGeometry x="827" y="40" width="360" height="100" as="geometry" />
        </mxCell>
        <mxCell id="dhuMwqZpVVbvkbiRmmKU-25" value="" style="group;shadow=1;" vertex="1" connectable="0" parent="dhuMwqZpVVbvkbiRmmKU-24">
          <mxGeometry width="360" height="100" as="geometry" />
        </mxCell>
        <mxCell id="dhuMwqZpVVbvkbiRmmKU-26" value="" style="shape=hexagon;perimeter=hexagonPerimeter2;whiteSpace=wrap;html=1;fixedSize=1;size=20;" vertex="1" parent="dhuMwqZpVVbvkbiRmmKU-25">
          <mxGeometry width="360" height="100" as="geometry" />
        </mxCell>
        <mxCell id="dhuMwqZpVVbvkbiRmmKU-27" value="" style="endArrow=none;html=1;rounded=0;entryX=1;entryY=0.5;entryDx=0;entryDy=0;" edge="1" parent="dhuMwqZpVVbvkbiRmmKU-25" target="dhuMwqZpVVbvkbiRmmKU-26">
          <mxGeometry width="50" height="50" relative="1" as="geometry">
            <mxPoint y="49.82500000000002" as="sourcePoint" />
            <mxPoint x="239.99999999999997" y="49.82500000000002" as="targetPoint" />
          </mxGeometry>
        </mxCell>
        <mxCell id="dhuMwqZpVVbvkbiRmmKU-29" value="int v_origen[50],int v_destino[50], float v_costo[50], v_distancia[50]" style="text;strokeColor=none;align=center;fillColor=none;html=1;verticalAlign=middle;whiteSpace=wrap;rounded=0;fontSize=12;fontFamily=Helvetica;fontColor=default;" vertex="1" parent="dhuMwqZpVVbvkbiRmmKU-25">
          <mxGeometry x="150.00260869565216" y="50" width="178.69304347826088" height="37.5" as="geometry" />
        </mxCell>
        <mxCell id="dhuMwqZpVVbvkbiRmmKU-30" value="void fCarga" style="text;strokeColor=none;align=center;fillColor=none;html=1;verticalAlign=middle;whiteSpace=wrap;rounded=0;fontSize=12;fontFamily=Helvetica;fontColor=default;" vertex="1" parent="dhuMwqZpVVbvkbiRmmKU-25">
          <mxGeometry x="90" y="18.18181818181818" width="180" height="6.818181818181818" as="geometry" />
        </mxCell>
        <mxCell id="dhuMwqZpVVbvkbiRmmKU-31" value="" style="endArrow=none;html=1;rounded=0;fontFamily=Helvetica;fontSize=12;fontColor=default;exitX=0.375;exitY=1;exitDx=0;exitDy=0;" edge="1" parent="dhuMwqZpVVbvkbiRmmKU-24" source="dhuMwqZpVVbvkbiRmmKU-26">
          <mxGeometry width="50" height="50" relative="1" as="geometry">
            <mxPoint x="59.99999999999999" y="125" as="sourcePoint" />
            <mxPoint x="135" y="50" as="targetPoint" />
          </mxGeometry>
        </mxCell>
        <mxCell id="dhuMwqZpVVbvkbiRmmKU-33" value="" style="group" vertex="1" connectable="0" parent="WIyWlLk6GJQsqaUBKTNV-1">
          <mxGeometry x="850" y="520" width="325.01" height="80" as="geometry" />
        </mxCell>
        <mxCell id="dhuMwqZpVVbvkbiRmmKU-34" value="" style="group;shadow=1;" vertex="1" connectable="0" parent="dhuMwqZpVVbvkbiRmmKU-33">
          <mxGeometry width="325.01" height="80" as="geometry" />
        </mxCell>
        <mxCell id="dhuMwqZpVVbvkbiRmmKU-35" value="" style="shape=hexagon;perimeter=hexagonPerimeter2;whiteSpace=wrap;html=1;fixedSize=1;size=20;" vertex="1" parent="dhuMwqZpVVbvkbiRmmKU-34">
          <mxGeometry width="325.01" height="80" as="geometry" />
        </mxCell>
        <mxCell id="dhuMwqZpVVbvkbiRmmKU-36" value="" style="endArrow=none;html=1;rounded=0;entryX=1;entryY=0.5;entryDx=0;entryDy=0;" edge="1" parent="dhuMwqZpVVbvkbiRmmKU-34" target="dhuMwqZpVVbvkbiRmmKU-35">
          <mxGeometry width="50" height="50" relative="1" as="geometry">
            <mxPoint y="39.860000000000014" as="sourcePoint" />
            <mxPoint x="216.67333333333332" y="39.860000000000014" as="targetPoint" />
          </mxGeometry>
        </mxCell>
        <mxCell id="dhuMwqZpVVbvkbiRmmKU-37" value="Text" style="text;strokeColor=none;align=center;fillColor=none;html=1;verticalAlign=middle;whiteSpace=wrap;rounded=0;fontSize=12;fontFamily=Helvetica;fontColor=default;" vertex="1" parent="dhuMwqZpVVbvkbiRmmKU-34">
          <mxGeometry x="27.084166666666665" y="40" width="108.33666666666666" height="30" as="geometry" />
        </mxCell>
        <mxCell id="dhuMwqZpVVbvkbiRmmKU-38" value="Text" style="text;strokeColor=none;align=center;fillColor=none;html=1;verticalAlign=middle;whiteSpace=wrap;rounded=0;fontSize=12;fontFamily=Helvetica;fontColor=default;" vertex="1" parent="dhuMwqZpVVbvkbiRmmKU-34">
          <mxGeometry x="135.42083333333332" y="40" width="108.33666666666666" height="30" as="geometry" />
        </mxCell>
        <mxCell id="dhuMwqZpVVbvkbiRmmKU-39" value="void fProceso" style="text;strokeColor=none;align=center;fillColor=none;html=1;verticalAlign=middle;whiteSpace=wrap;rounded=0;fontSize=12;fontFamily=Helvetica;fontColor=default;" vertex="1" parent="dhuMwqZpVVbvkbiRmmKU-34">
          <mxGeometry x="81.2525" y="10" width="162.505" height="10" as="geometry" />
        </mxCell>
        <mxCell id="dhuMwqZpVVbvkbiRmmKU-40" value="" style="endArrow=none;html=1;rounded=0;fontFamily=Helvetica;fontSize=12;fontColor=default;exitX=0.375;exitY=1;exitDx=0;exitDy=0;" edge="1" parent="dhuMwqZpVVbvkbiRmmKU-33" source="dhuMwqZpVVbvkbiRmmKU-35">
          <mxGeometry width="50" height="50" relative="1" as="geometry">
            <mxPoint x="54.16833333333333" y="100" as="sourcePoint" />
            <mxPoint x="121.87875" y="40" as="targetPoint" />
          </mxGeometry>
        </mxCell>
        <mxCell id="dhuMwqZpVVbvkbiRmmKU-65" value="" style="group" vertex="1" connectable="0" parent="WIyWlLk6GJQsqaUBKTNV-1">
          <mxGeometry x="218.88" y="200" width="360" height="90" as="geometry" />
        </mxCell>
        <mxCell id="dhuMwqZpVVbvkbiRmmKU-66" value="" style="group;shadow=1;" vertex="1" connectable="0" parent="dhuMwqZpVVbvkbiRmmKU-65">
          <mxGeometry width="360" height="90" as="geometry" />
        </mxCell>
        <mxCell id="dhuMwqZpVVbvkbiRmmKU-67" value="" style="shape=hexagon;perimeter=hexagonPerimeter2;whiteSpace=wrap;html=1;fixedSize=1;size=20;" vertex="1" parent="dhuMwqZpVVbvkbiRmmKU-66">
          <mxGeometry width="360" height="90" as="geometry" />
        </mxCell>
        <mxCell id="dhuMwqZpVVbvkbiRmmKU-68" value="" style="endArrow=none;html=1;rounded=0;entryX=1;entryY=0.5;entryDx=0;entryDy=0;" edge="1" parent="dhuMwqZpVVbvkbiRmmKU-66" target="dhuMwqZpVVbvkbiRmmKU-67">
          <mxGeometry width="50" height="50" relative="1" as="geometry">
            <mxPoint y="44.842500000000015" as="sourcePoint" />
            <mxPoint x="239.99999999999997" y="44.842500000000015" as="targetPoint" />
          </mxGeometry>
        </mxCell>
        <mxCell id="dhuMwqZpVVbvkbiRmmKU-69" value="v_origen, v_destino,&amp;nbsp; v_costo, v_distancia" style="text;strokeColor=none;align=center;fillColor=none;html=1;verticalAlign=middle;whiteSpace=wrap;rounded=0;fontSize=12;fontFamily=Helvetica;fontColor=default;" vertex="1" parent="dhuMwqZpVVbvkbiRmmKU-66">
          <mxGeometry x="150.00260869565216" y="45" width="178.69304347826088" height="33.75" as="geometry" />
        </mxCell>
        <mxCell id="dhuMwqZpVVbvkbiRmmKU-70" value="void fCarga" style="text;strokeColor=none;align=center;fillColor=none;html=1;verticalAlign=middle;whiteSpace=wrap;rounded=0;fontSize=12;fontFamily=Helvetica;fontColor=default;" vertex="1" parent="dhuMwqZpVVbvkbiRmmKU-66">
          <mxGeometry x="90" y="16.363636363636363" width="180" height="6.136363636363637" as="geometry" />
        </mxCell>
        <mxCell id="dhuMwqZpVVbvkbiRmmKU-71" value="" style="endArrow=none;html=1;rounded=0;fontFamily=Helvetica;fontSize=12;fontColor=default;exitX=0.375;exitY=1;exitDx=0;exitDy=0;" edge="1" parent="dhuMwqZpVVbvkbiRmmKU-65" source="dhuMwqZpVVbvkbiRmmKU-67">
          <mxGeometry width="50" height="50" relative="1" as="geometry">
            <mxPoint x="59.99999999999999" y="112.5" as="sourcePoint" />
            <mxPoint x="135" y="45" as="targetPoint" />
          </mxGeometry>
        </mxCell>
        <mxCell id="dhuMwqZpVVbvkbiRmmKU-77" value="" style="group" vertex="1" connectable="0" parent="WIyWlLk6GJQsqaUBKTNV-1">
          <mxGeometry x="236.37" y="330" width="325.01" height="80" as="geometry" />
        </mxCell>
        <mxCell id="dhuMwqZpVVbvkbiRmmKU-78" value="" style="group;shadow=1;" vertex="1" connectable="0" parent="dhuMwqZpVVbvkbiRmmKU-77">
          <mxGeometry width="325.01" height="80" as="geometry" />
        </mxCell>
        <mxCell id="dhuMwqZpVVbvkbiRmmKU-79" value="" style="shape=hexagon;perimeter=hexagonPerimeter2;whiteSpace=wrap;html=1;fixedSize=1;size=20;" vertex="1" parent="dhuMwqZpVVbvkbiRmmKU-78">
          <mxGeometry width="325.01" height="80" as="geometry" />
        </mxCell>
        <mxCell id="dhuMwqZpVVbvkbiRmmKU-80" value="" style="endArrow=none;html=1;rounded=0;entryX=1;entryY=0.5;entryDx=0;entryDy=0;" edge="1" parent="dhuMwqZpVVbvkbiRmmKU-78" target="dhuMwqZpVVbvkbiRmmKU-79">
          <mxGeometry width="50" height="50" relative="1" as="geometry">
            <mxPoint y="39.860000000000014" as="sourcePoint" />
            <mxPoint x="216.67333333333332" y="39.860000000000014" as="targetPoint" />
          </mxGeometry>
        </mxCell>
        <mxCell id="dhuMwqZpVVbvkbiRmmKU-81" value="Text" style="text;strokeColor=none;align=center;fillColor=none;html=1;verticalAlign=middle;whiteSpace=wrap;rounded=0;fontSize=12;fontFamily=Helvetica;fontColor=default;" vertex="1" parent="dhuMwqZpVVbvkbiRmmKU-78">
          <mxGeometry x="27.084166666666665" y="40" width="108.33666666666666" height="30" as="geometry" />
        </mxCell>
        <mxCell id="dhuMwqZpVVbvkbiRmmKU-82" value="Text" style="text;strokeColor=none;align=center;fillColor=none;html=1;verticalAlign=middle;whiteSpace=wrap;rounded=0;fontSize=12;fontFamily=Helvetica;fontColor=default;" vertex="1" parent="dhuMwqZpVVbvkbiRmmKU-78">
          <mxGeometry x="135.42083333333332" y="40" width="108.33666666666666" height="30" as="geometry" />
        </mxCell>
        <mxCell id="dhuMwqZpVVbvkbiRmmKU-83" value="void fProceso" style="text;strokeColor=none;align=center;fillColor=none;html=1;verticalAlign=middle;whiteSpace=wrap;rounded=0;fontSize=12;fontFamily=Helvetica;fontColor=default;" vertex="1" parent="dhuMwqZpVVbvkbiRmmKU-78">
          <mxGeometry x="81.2525" y="10" width="162.505" height="10" as="geometry" />
        </mxCell>
        <mxCell id="dhuMwqZpVVbvkbiRmmKU-84" value="" style="endArrow=none;html=1;rounded=0;fontFamily=Helvetica;fontSize=12;fontColor=default;exitX=0.375;exitY=1;exitDx=0;exitDy=0;" edge="1" parent="dhuMwqZpVVbvkbiRmmKU-77" source="dhuMwqZpVVbvkbiRmmKU-79">
          <mxGeometry width="50" height="50" relative="1" as="geometry">
            <mxPoint x="54.16833333333333" y="100" as="sourcePoint" />
            <mxPoint x="121.87875" y="40" as="targetPoint" />
          </mxGeometry>
        </mxCell>
        <mxCell id="dhuMwqZpVVbvkbiRmmKU-85" value="" style="edgeStyle=orthogonalEdgeStyle;rounded=0;orthogonalLoop=1;jettySize=auto;html=1;" edge="1" parent="WIyWlLk6GJQsqaUBKTNV-1" source="dhuMwqZpVVbvkbiRmmKU-67" target="dhuMwqZpVVbvkbiRmmKU-83">
          <mxGeometry relative="1" as="geometry" />
        </mxCell>
      </root>
    </mxGraphModel>
  </diagram>
</mxfile>
